<svg width="107" height="34" viewBox="0 0 107 34" fill="none" xmlns="http://www.w3.org/2000/svg">
<rect x="0.5" y="0.5" width="106" height="33" fill="#FFFF66" stroke="black"/>
<path d="M13.7 13.48H16.316L19.028 22H16.652L16.136 20.332H13.868L13.364 22H10.976L13.7 13.48ZM15.764 18.772L15.008 15.772L14.216 18.772H15.764ZM13.208 11.032H15.236L15.836 12.736L14.396 13.12L13.208 11.032ZM28.4279 22V13.48H32.0999C32.5159 13.48 32.8999 13.564 33.2519 13.732C33.6039 13.9 33.9079 14.128 34.1639 14.416C34.4199 14.696 34.6159 15.012 34.7519 15.364C34.8959 15.716 34.9679 16.072 34.9679 16.432C34.9679 16.936 34.8479 17.412 34.6079 17.86C34.3759 18.308 34.0479 18.676 33.6239 18.964C33.2079 19.244 32.7199 19.384 32.1599 19.384H30.7679V22H28.4279ZM30.7679 17.344H32.0039C32.1479 17.344 32.2799 17.28 32.3999 17.152C32.5279 17.016 32.5919 16.776 32.5919 16.432C32.5919 16.08 32.5199 15.84 32.3759 15.712C32.2319 15.584 32.0879 15.52 31.9439 15.52H30.7679V17.344ZM39.0845 22V13.48H42.9965C43.4125 13.48 43.7965 13.564 44.1485 13.732C44.5005 13.9 44.8045 14.128 45.0605 14.416C45.3165 14.696 45.5125 15.012 45.6485 15.364C45.7925 15.716 45.8645 16.072 45.8645 16.432C45.8645 16.92 45.7565 17.38 45.5405 17.812C45.3245 18.244 45.0245 18.596 44.6405 18.868L46.4405 22H43.8725L42.3725 19.384H41.4245V22H39.0845ZM41.4245 17.344H42.9005C43.0445 17.344 43.1765 17.264 43.2965 17.104C43.4245 16.944 43.4885 16.72 43.4885 16.432C43.4885 16.136 43.4165 15.912 43.2725 15.76C43.1285 15.6 42.9845 15.52 42.8405 15.52H41.4245V17.344ZM54.0967 22.072C53.4487 22.072 52.8607 21.952 52.3327 21.712C51.8047 21.464 51.3487 21.136 50.9647 20.728C50.5887 20.312 50.2967 19.848 50.0887 19.336C49.8887 18.816 49.7887 18.28 49.7887 17.728C49.7887 17.16 49.8967 16.62 50.1127 16.108C50.3287 15.596 50.6287 15.14 51.0127 14.74C51.4047 14.332 51.8647 14.012 52.3927 13.78C52.9287 13.548 53.5127 13.432 54.1447 13.432C54.7927 13.432 55.3807 13.556 55.9087 13.804C56.4367 14.044 56.8887 14.372 57.2647 14.788C57.6407 15.204 57.9287 15.672 58.1287 16.192C58.3367 16.704 58.4407 17.232 58.4407 17.776C58.4407 18.336 58.3327 18.872 58.1167 19.384C57.9087 19.896 57.6087 20.356 57.2167 20.764C56.8327 21.164 56.3767 21.484 55.8487 21.724C55.3207 21.956 54.7367 22.072 54.0967 22.072ZM52.1647 17.752C52.1647 18.128 52.2327 18.488 52.3687 18.832C52.5127 19.176 52.7287 19.456 53.0167 19.672C53.3127 19.888 53.6807 19.996 54.1207 19.996C54.5767 19.996 54.9447 19.884 55.2247 19.66C55.5127 19.436 55.7247 19.152 55.8607 18.808C55.9967 18.456 56.0647 18.096 56.0647 17.728C56.0647 17.344 55.9927 16.984 55.8487 16.648C55.7047 16.312 55.4887 16.04 55.2007 15.832C54.9127 15.616 54.5487 15.508 54.1087 15.508C53.6607 15.508 53.2927 15.62 53.0047 15.844C52.7167 16.06 52.5047 16.34 52.3687 16.684C52.2327 17.02 52.1647 17.376 52.1647 17.752ZM62.6125 22V13.48H66.2845C66.7005 13.48 67.0845 13.564 67.4365 13.732C67.7885 13.9 68.0925 14.128 68.3485 14.416C68.6045 14.696 68.8005 15.012 68.9365 15.364C69.0805 15.716 69.1525 16.072 69.1525 16.432C69.1525 16.936 69.0325 17.412 68.7925 17.86C68.5605 18.308 68.2325 18.676 67.8085 18.964C67.3925 19.244 66.9045 19.384 66.3445 19.384H64.9525V22H62.6125ZM64.9525 17.344H66.1885C66.3325 17.344 66.4645 17.28 66.5845 17.152C66.7125 17.016 66.7765 16.776 66.7765 16.432C66.7765 16.08 66.7045 15.84 66.5605 15.712C66.4165 15.584 66.2725 15.52 66.1285 15.52H64.9525V17.344ZM77.109 22.072C76.461 22.072 75.873 21.952 75.345 21.712C74.817 21.464 74.361 21.136 73.977 20.728C73.601 20.312 73.309 19.848 73.101 19.336C72.901 18.816 72.801 18.28 72.801 17.728C72.801 17.16 72.909 16.62 73.125 16.108C73.341 15.596 73.641 15.14 74.025 14.74C74.417 14.332 74.877 14.012 75.405 13.78C75.941 13.548 76.525 13.432 77.157 13.432C77.805 13.432 78.393 13.556 78.921 13.804C79.449 14.044 79.901 14.372 80.277 14.788C80.653 15.204 80.941 15.672 81.141 16.192C81.349 16.704 81.453 17.232 81.453 17.776C81.453 18.336 81.345 18.872 81.129 19.384C80.921 19.896 80.621 20.356 80.229 20.764C79.845 21.164 79.389 21.484 78.861 21.724C78.333 21.956 77.749 22.072 77.109 22.072ZM75.177 17.752C75.177 18.128 75.245 18.488 75.381 18.832C75.525 19.176 75.741 19.456 76.029 19.672C76.325 19.888 76.693 19.996 77.133 19.996C77.589 19.996 77.957 19.884 78.237 19.66C78.525 19.436 78.737 19.152 78.873 18.808C79.009 18.456 79.077 18.096 79.077 17.728C79.077 17.344 79.005 16.984 78.861 16.648C78.717 16.312 78.501 16.04 78.213 15.832C77.925 15.616 77.561 15.508 77.121 15.508C76.673 15.508 76.305 15.62 76.017 15.844C75.729 16.06 75.517 16.34 75.381 16.684C75.245 17.02 75.177 17.376 75.177 17.752ZM90.7145 16.264C90.7145 16.264 90.6465 16.224 90.5105 16.144C90.3745 16.064 90.1945 15.976 89.9705 15.88C89.7465 15.776 89.5025 15.684 89.2385 15.604C88.9745 15.524 88.7145 15.484 88.4585 15.484C88.2585 15.484 88.0945 15.516 87.9665 15.58C87.8385 15.644 87.7745 15.752 87.7745 15.904C87.7745 16.128 87.9145 16.288 88.1945 16.384C88.4825 16.472 88.8705 16.596 89.3585 16.756C89.8865 16.916 90.3425 17.1 90.7265 17.308C91.1105 17.516 91.4065 17.784 91.6145 18.112C91.8225 18.432 91.9265 18.86 91.9265 19.396C91.9265 19.908 91.8345 20.34 91.6505 20.692C91.4665 21.036 91.2185 21.312 90.9065 21.52C90.5945 21.728 90.2465 21.88 89.8625 21.976C89.4785 22.064 89.0865 22.108 88.6865 22.108C88.2785 22.108 87.8505 22.068 87.4025 21.988C86.9625 21.9 86.5345 21.784 86.1185 21.64C85.7025 21.488 85.3225 21.312 84.9785 21.112L85.9865 19.06C85.9865 19.06 86.0665 19.108 86.2265 19.204C86.3865 19.3 86.5985 19.408 86.8625 19.528C87.1265 19.648 87.4185 19.756 87.7385 19.852C88.0665 19.948 88.3945 19.996 88.7225 19.996C88.9785 19.996 89.1545 19.964 89.2505 19.9C89.3545 19.828 89.4065 19.736 89.4065 19.624C89.4065 19.456 89.3185 19.328 89.1425 19.24C88.9665 19.144 88.7345 19.056 88.4465 18.976C88.1665 18.888 87.8545 18.788 87.5105 18.676C86.7585 18.42 86.2105 18.116 85.8665 17.764C85.5225 17.404 85.3505 16.912 85.3505 16.288C85.3505 15.656 85.4985 15.128 85.7945 14.704C86.0905 14.28 86.4785 13.96 86.9585 13.744C87.4465 13.52 87.9705 13.408 88.5305 13.408C88.9465 13.408 89.3465 13.46 89.7305 13.564C90.1225 13.66 90.4865 13.78 90.8225 13.924C91.1665 14.068 91.4665 14.204 91.7225 14.332L90.7145 16.264Z" fill="black"/>
</svg>
