<svg width="71" height="31" viewBox="0 0 71 31" fill="none" xmlns="http://www.w3.org/2000/svg">
<rect x="0.5" y="0.5" width="70" height="30" fill="#FFFF66" stroke="black"/>
<path d="M14.732 20V11.48H18.644C19.06 11.48 19.444 11.564 19.796 11.732C20.148 11.9 20.452 12.128 20.708 12.416C20.964 12.696 21.16 13.012 21.296 13.364C21.44 13.716 21.512 14.072 21.512 14.432C21.512 14.92 21.404 15.38 21.188 15.812C20.972 16.244 20.672 16.596 20.288 16.868L22.088 20H19.52L18.02 17.384H17.072V20H14.732ZM17.072 15.344H18.548C18.692 15.344 18.824 15.264 18.944 15.104C19.072 14.944 19.136 14.72 19.136 14.432C19.136 14.136 19.064 13.912 18.92 13.76C18.776 13.6 18.632 13.52 18.488 13.52H17.072V15.344ZM32.0817 17.96V20H26.0097V11.48H31.9737V13.52H28.3497V14.72H31.4457V16.616H28.3497V17.96H32.0817ZM38.3178 11.48H40.9338L43.6458 20H41.2698L40.7538 18.332H38.4858L37.9818 20H35.5938L38.3178 11.48ZM40.3818 16.772L39.6258 13.772L38.8338 16.772H40.3818ZM47.5337 20V11.48H50.8097C51.7537 11.48 52.5417 11.672 53.1737 12.056C53.8137 12.432 54.2937 12.944 54.6137 13.592C54.9417 14.232 55.1057 14.944 55.1057 15.728C55.1057 16.592 54.9257 17.344 54.5657 17.984C54.2137 18.624 53.7137 19.12 53.0657 19.472C52.4257 19.824 51.6737 20 50.8097 20H47.5337ZM52.7297 15.728C52.7297 15.064 52.5577 14.532 52.2137 14.132C51.8777 13.724 51.4097 13.52 50.8097 13.52H49.8737V17.96H50.8097C51.4257 17.96 51.8977 17.748 52.2257 17.324C52.5617 16.9 52.7297 16.368 52.7297 15.728Z" fill="black"/>
</svg>
