<svg width="105" height="46" viewBox="0 0 105 46" fill="none" xmlns="http://www.w3.org/2000/svg">
<rect x="0.5" y="0.5" width="104" height="45" rx="22.5" fill="#FFFF66" stroke="black"/>
<path d="M21.804 25.96V28H15.732V19.48H21.696V21.52H18.072V22.72H21.168V24.616H18.072V25.96H21.804ZM28.4122 23.812V28H26.0722V19.48H27.8962L31.3162 23.812V19.48H33.6562V28H31.7962L28.4122 23.812ZM39.943 19.48L41.611 25.3L43.255 19.48H45.715L42.775 28H40.447L37.471 19.48H39.943ZM53.0417 28.072C52.3937 28.072 51.8057 27.952 51.2777 27.712C50.7497 27.464 50.2937 27.136 49.9097 26.728C49.5337 26.312 49.2417 25.848 49.0337 25.336C48.8337 24.816 48.7337 24.28 48.7337 23.728C48.7337 23.16 48.8417 22.62 49.0577 22.108C49.2737 21.596 49.5737 21.14 49.9577 20.74C50.3497 20.332 50.8097 20.012 51.3377 19.78C51.8737 19.548 52.4577 19.432 53.0897 19.432C53.7377 19.432 54.3257 19.556 54.8537 19.804C55.3817 20.044 55.8337 20.372 56.2097 20.788C56.5857 21.204 56.8737 21.672 57.0737 22.192C57.2817 22.704 57.3857 23.232 57.3857 23.776C57.3857 24.336 57.2777 24.872 57.0617 25.384C56.8537 25.896 56.5537 26.356 56.1617 26.764C55.7777 27.164 55.3217 27.484 54.7937 27.724C54.2657 27.956 53.6817 28.072 53.0417 28.072ZM51.1097 23.752C51.1097 24.128 51.1777 24.488 51.3137 24.832C51.4577 25.176 51.6737 25.456 51.9617 25.672C52.2577 25.888 52.6257 25.996 53.0657 25.996C53.5217 25.996 53.8897 25.884 54.1697 25.66C54.4577 25.436 54.6697 25.152 54.8057 24.808C54.9417 24.456 55.0097 24.096 55.0097 23.728C55.0097 23.344 54.9377 22.984 54.7937 22.648C54.6497 22.312 54.4337 22.04 54.1457 21.832C53.8577 21.616 53.4937 21.508 53.0537 21.508C52.6057 21.508 52.2377 21.62 51.9497 21.844C51.6617 22.06 51.4497 22.34 51.3137 22.684C51.1777 23.02 51.1097 23.376 51.1097 23.752ZM62.7347 19.48L64.2587 22.96L65.8187 19.48H68.3627L65.4227 25.18V28H63.0947V25.156L60.2027 19.48H62.7347ZM78.2509 25.96V28H72.1789V19.48H78.1429V21.52H74.5189V22.72H77.6149V24.616H74.5189V25.96H78.2509ZM82.519 28V19.48H86.431C86.847 19.48 87.231 19.564 87.583 19.732C87.935 19.9 88.239 20.128 88.495 20.416C88.751 20.696 88.947 21.012 89.083 21.364C89.227 21.716 89.299 22.072 89.299 22.432C89.299 22.92 89.191 23.38 88.975 23.812C88.759 24.244 88.459 24.596 88.075 24.868L89.875 28H87.307L85.807 25.384H84.859V28H82.519ZM84.859 23.344H86.335C86.479 23.344 86.611 23.264 86.731 23.104C86.859 22.944 86.923 22.72 86.923 22.432C86.923 22.136 86.851 21.912 86.707 21.76C86.563 21.6 86.419 21.52 86.275 21.52H84.859V23.344Z" fill="black"/>
</svg>
