<svg width="71" height="31" viewBox="0 0 71 31" fill="none" xmlns="http://www.w3.org/2000/svg">
<rect x="0.5" y="0.5" width="70" height="30" fill="#FFFF66" stroke="black"/>
<path d="M16.732 20V11.48H19.072V17.96H22.936V20H16.732ZM26.9315 20V11.48H29.2715V20H26.9315ZM33.9201 20V11.48H37.8321C38.2481 11.48 38.6321 11.564 38.9841 11.732C39.3361 11.9 39.6401 12.128 39.8961 12.416C40.1521 12.696 40.3481 13.012 40.4841 13.364C40.6281 13.716 40.7001 14.072 40.7001 14.432C40.7001 14.92 40.5921 15.38 40.3761 15.812C40.1601 16.244 39.8601 16.596 39.4761 16.868L41.2761 20H38.7081L37.2081 17.384H36.2601V20H33.9201ZM36.2601 15.344H37.7361C37.8801 15.344 38.0121 15.264 38.1321 15.104C38.2601 14.944 38.3241 14.72 38.3241 14.432C38.3241 14.136 38.2521 13.912 38.1081 13.76C37.9641 13.6 37.8201 13.52 37.6761 13.52H36.2601V15.344ZM51.2698 17.96V20H45.1978V11.48H51.1618V13.52H47.5378V14.72H50.6338V16.616H47.5378V17.96H51.2698Z" fill="black"/>
</svg>
