<svg width="305" height="97" viewBox="0 0 305 97" fill="none" xmlns="http://www.w3.org/2000/svg">
<path d="M22.152 25.264H33.48L29.832 42.544H47.368L51.016 25.264H62.344L52.872 70H41.544L45.32 51.952H27.784L24.008 70H12.68L22.152 25.264ZM68.0895 25.264H99.8335L97.7855 34.8H77.3695L75.6415 43.184H90.5535L88.6335 52.08H73.7215L71.9295 60.464H92.3455L90.3615 70H58.6175L68.0895 25.264ZM104.34 25.264H124.436C128.702 25.264 132.073 26.3307 134.548 28.464C137.065 30.5973 138.324 33.4773 138.324 37.104C138.324 38.2133 138.196 39.3867 137.94 40.624C137.257 43.952 135.934 46.7893 133.972 49.136C132.052 51.4827 129.641 53.232 126.74 54.384L131.347 70H119.7L115.54 55.984H109.14L106.196 70H94.8675L104.34 25.264ZM117.972 46.448C120.233 46.448 122.068 46.0213 123.476 45.168C124.884 44.272 125.822 42.7573 126.292 40.624C126.462 39.6853 126.548 39.0667 126.548 38.768C126.548 37.2747 126.036 36.2507 125.012 35.696C124.03 35.0987 122.58 34.8 120.66 34.8H113.62L111.188 46.448H117.972ZM151.785 34.8H139.177L141.225 25.264H177.833L175.785 34.8H163.113L155.689 70H144.361L151.785 34.8ZM181.34 25.264H192.668L189.02 42.544H206.556L210.204 25.264H221.532L212.06 70H200.732L204.507 51.952H186.972L183.196 70H171.867L181.34 25.264ZM243.917 25.264H255.053L263.437 70H252.173L250.509 60.784H233.997L228.493 70H216.525L243.917 25.264ZM249.549 52.08L247.309 37.04L238.605 52.08H249.549Z" fill="#FAFF00"/>
<path d="M2.859 74.913H5.16L3.639 82.063H7.591L7.188 84H0.935L2.859 74.913ZM11.4553 84.195C10.4499 84.195 9.64825 83.974 9.05025 83.532C8.45225 83.0813 8.15325 82.453 8.15325 81.647C8.15325 81.413 8.17925 81.166 8.23125 80.906C8.45658 79.8573 8.92892 79.0383 9.64825 78.449C10.3763 77.8597 11.3469 77.565 12.5603 77.565C13.1583 77.565 13.6783 77.6777 14.1203 77.903C14.5623 78.1283 14.9003 78.436 15.1343 78.826C15.3683 79.216 15.4853 79.6537 15.4853 80.139C15.4853 80.347 15.4593 80.568 15.4073 80.802L15.2253 81.647H10.2463C10.2723 82.3057 10.8919 82.635 12.1053 82.635C12.5126 82.635 12.9373 82.6003 13.3793 82.531C13.8213 82.4617 14.2113 82.3663 14.5493 82.245L14.2373 83.753C13.8906 83.883 13.4659 83.987 12.9633 84.065C12.4606 84.1517 11.9579 84.195 11.4553 84.195ZM13.3663 80.217C13.3749 80.165 13.3793 80.0957 13.3793 80.009C13.3793 79.723 13.2883 79.5063 13.1063 79.359C12.9243 79.2117 12.6166 79.138 12.1833 79.138C11.7673 79.138 11.4163 79.2377 11.1303 79.437C10.8443 79.6277 10.6493 79.8877 10.5453 80.217H13.3663ZM22.6931 84.195C22.1905 84.195 21.6748 84.143 21.1461 84.039C20.6261 83.9437 20.2275 83.805 19.9501 83.623L20.3011 81.946C20.6131 82.154 21.0031 82.3273 21.4711 82.466C21.9391 82.596 22.3811 82.661 22.7971 82.661C23.1005 82.661 23.3258 82.6393 23.4731 82.596C23.6205 82.5527 23.7115 82.466 23.7461 82.336C23.7635 82.232 23.7331 82.1497 23.6551 82.089C23.5771 82.0197 23.4255 81.9503 23.2001 81.881C22.9835 81.803 22.7278 81.7207 22.4331 81.634C21.8091 81.4347 21.3585 81.2223 21.0811 80.997C20.8125 80.7717 20.6781 80.464 20.6781 80.074C20.6781 79.9093 20.6955 79.7447 20.7301 79.58C21.0161 78.2367 22.1558 77.565 24.1491 77.565C24.5998 77.565 25.0635 77.6127 25.5401 77.708C26.0168 77.8033 26.3635 77.929 26.5801 78.085L26.2291 79.736C26.0038 79.5627 25.6875 79.4197 25.2801 79.307C24.8815 79.1943 24.4958 79.138 24.1231 79.138C23.8285 79.138 23.5945 79.1683 23.4211 79.229C23.2478 79.281 23.1438 79.3763 23.1091 79.515C23.0831 79.645 23.1438 79.7447 23.2911 79.814C23.4471 79.8833 23.7245 79.97 24.1231 80.074C24.1665 80.0827 24.2141 80.0957 24.2661 80.113C24.3268 80.1303 24.3875 80.1477 24.4481 80.165C25.0895 80.347 25.5401 80.555 25.8001 80.789C26.0601 81.023 26.1901 81.3263 26.1901 81.699C26.1901 81.829 26.1685 82.011 26.1251 82.245C25.9951 82.8517 25.6485 83.3283 25.0851 83.675C24.5305 84.0217 23.7331 84.195 22.6931 84.195ZM29.3854 76.928C29.0907 76.928 28.8524 76.8457 28.6704 76.681C28.4884 76.5077 28.3974 76.2823 28.3974 76.005C28.3974 75.745 28.4667 75.5023 28.6054 75.277C28.7441 75.0517 28.9261 74.874 29.1514 74.744C29.3854 74.6053 29.6324 74.536 29.8924 74.536C30.1871 74.536 30.4254 74.627 30.6074 74.809C30.7981 74.9823 30.8934 75.2077 30.8934 75.485C30.8934 75.5283 30.8847 75.6107 30.8674 75.732C30.7894 76.07 30.6074 76.356 30.3214 76.59C30.0354 76.8153 29.7234 76.928 29.3854 76.928ZM28.0724 77.76H30.3604L29.0344 84H26.7464L28.0724 77.76ZM32.9386 84.195C32.3059 84.195 31.8292 84.0477 31.5086 83.753C31.1966 83.4583 31.0406 83.0423 31.0406 82.505C31.0406 82.2883 31.0666 82.05 31.1186 81.79L31.6386 79.346H30.7546L31.0926 77.76H31.9766L32.3666 75.888H34.6546L34.2646 77.76H35.6946L35.3566 79.346H33.9266L33.4716 81.478C33.4369 81.6167 33.4196 81.7553 33.4196 81.894C33.4196 82.076 33.4716 82.2103 33.5756 82.297C33.6796 82.3837 33.8529 82.427 34.0956 82.427C34.4076 82.427 34.7196 82.349 35.0316 82.193L34.6676 83.896C34.4249 84 34.1692 84.0737 33.9006 84.117C33.6319 84.169 33.3112 84.195 32.9386 84.195ZM38.9152 84.195C37.9099 84.195 37.1082 83.974 36.5102 83.532C35.9122 83.0813 35.6132 82.453 35.6132 81.647C35.6132 81.413 35.6392 81.166 35.6912 80.906C35.9165 79.8573 36.3889 79.0383 37.1082 78.449C37.8362 77.8597 38.8069 77.565 40.0202 77.565C40.6182 77.565 41.1382 77.6777 41.5802 77.903C42.0222 78.1283 42.3602 78.436 42.5942 78.826C42.8282 79.216 42.9452 79.6537 42.9452 80.139C42.9452 80.347 42.9192 80.568 42.8672 80.802L42.6852 81.647H37.7062C37.7322 82.3057 38.3519 82.635 39.5652 82.635C39.9725 82.635 40.3972 82.6003 40.8392 82.531C41.2812 82.4617 41.6712 82.3663 42.0092 82.245L41.6972 83.753C41.3505 83.883 40.9259 83.987 40.4232 84.065C39.9205 84.1517 39.4179 84.195 38.9152 84.195ZM40.8262 80.217C40.8349 80.165 40.8392 80.0957 40.8392 80.009C40.8392 79.723 40.7482 79.5063 40.5662 79.359C40.3842 79.2117 40.0765 79.138 39.6432 79.138C39.2272 79.138 38.8762 79.2377 38.5902 79.437C38.3042 79.6277 38.1092 79.8877 38.0052 80.217H40.8262ZM50.1531 84.195C49.6504 84.195 49.1348 84.143 48.6061 84.039C48.0861 83.9437 47.6874 83.805 47.4101 83.623L47.7611 81.946C48.0731 82.154 48.4631 82.3273 48.9311 82.466C49.3991 82.596 49.8411 82.661 50.2571 82.661C50.5604 82.661 50.7858 82.6393 50.9331 82.596C51.0804 82.5527 51.1714 82.466 51.2061 82.336C51.2234 82.232 51.1931 82.1497 51.1151 82.089C51.0371 82.0197 50.8854 81.9503 50.6601 81.881C50.4434 81.803 50.1878 81.7207 49.8931 81.634C49.2691 81.4347 48.8184 81.2223 48.5411 80.997C48.2724 80.7717 48.1381 80.464 48.1381 80.074C48.1381 79.9093 48.1554 79.7447 48.1901 79.58C48.4761 78.2367 49.6158 77.565 51.6091 77.565C52.0598 77.565 52.5234 77.6127 53.0001 77.708C53.4768 77.8033 53.8234 77.929 54.0401 78.085L53.6891 79.736C53.4638 79.5627 53.1474 79.4197 52.7401 79.307C52.3414 79.1943 51.9558 79.138 51.5831 79.138C51.2884 79.138 51.0544 79.1683 50.8811 79.229C50.7078 79.281 50.6038 79.3763 50.5691 79.515C50.5431 79.645 50.6038 79.7447 50.7511 79.814C50.9071 79.8833 51.1844 79.97 51.5831 80.074C51.6264 80.0827 51.6741 80.0957 51.7261 80.113C51.7868 80.1303 51.8474 80.1477 51.9081 80.165C52.5494 80.347 53.0001 80.555 53.2601 80.789C53.5201 81.023 53.6501 81.3263 53.6501 81.699C53.6501 81.829 53.6284 82.011 53.5851 82.245C53.4551 82.8517 53.1084 83.3283 52.5451 83.675C51.9904 84.0217 51.1931 84.195 50.1531 84.195ZM56.5854 84.195C55.9094 84.195 55.3894 84.0217 55.0254 83.675C54.67 83.3197 54.4924 82.8473 54.4924 82.258C54.4924 82.05 54.5184 81.829 54.5704 81.595L55.3894 77.76H57.6774L56.9104 81.335C56.8844 81.465 56.8714 81.5907 56.8714 81.712C56.8714 82.18 57.1314 82.414 57.6514 82.414C57.946 82.414 58.2277 82.3447 58.4964 82.206C58.7737 82.0673 59.0207 81.8637 59.2374 81.595L60.0564 77.76H62.3444L61.0184 84H58.8084L58.9514 83.324C58.6134 83.61 58.2364 83.8267 57.8204 83.974C57.413 84.1213 57.0014 84.195 56.5854 84.195ZM63.5159 77.76H65.7259L65.5569 78.54C65.8602 78.2627 66.2459 78.0503 66.7139 77.903C67.1905 77.747 67.6975 77.669 68.2349 77.669L67.8579 79.424C67.2859 79.424 66.7615 79.5063 66.2849 79.671C65.8082 79.8357 65.4572 80.0827 65.2319 80.412L64.4779 84H62.1899L63.5159 77.76ZM74.0063 74.393H76.2943L74.2533 84H71.9653L74.0063 74.393ZM77.9534 74.718H80.1374L78.5124 77.318H76.5754L77.9534 74.718ZM81.1283 74.393H83.4163L82.5583 78.397C82.8963 78.1197 83.2603 77.9117 83.6503 77.773C84.0403 77.6343 84.4347 77.565 84.8333 77.565C85.5353 77.565 86.0597 77.7383 86.4063 78.085C86.753 78.423 86.9263 78.878 86.9263 79.45C86.9263 79.7013 86.9047 79.918 86.8613 80.1L86.0423 84H83.7543L84.5083 80.399C84.5343 80.2517 84.5473 80.126 84.5473 80.022C84.5473 79.5713 84.2917 79.346 83.7803 79.346C83.4857 79.346 83.1997 79.4153 82.9223 79.554C82.6537 79.6927 82.4067 79.8963 82.1813 80.165L81.3753 84H79.0873L81.1283 74.393ZM89.8659 76.928C89.5712 76.928 89.3329 76.8457 89.1509 76.681C88.9689 76.5077 88.8779 76.2823 88.8779 76.005C88.8779 75.745 88.9472 75.5023 89.0859 75.277C89.2245 75.0517 89.4065 74.874 89.6319 74.744C89.8659 74.6053 90.1129 74.536 90.3729 74.536C90.6675 74.536 90.9059 74.627 91.0879 74.809C91.2785 74.9823 91.3739 75.2077 91.3739 75.485C91.3739 75.5283 91.3652 75.6107 91.3479 75.732C91.2699 76.07 91.0879 76.356 90.8019 76.59C90.5159 76.8153 90.2039 76.928 89.8659 76.928ZM88.5529 77.76H90.8409L89.5149 84H87.2269L88.5529 77.76ZM93.406 84.195C92.9034 84.195 92.3877 84.143 91.859 84.039C91.339 83.9437 90.9404 83.805 90.663 83.623L91.014 81.946C91.326 82.154 91.716 82.3273 92.184 82.466C92.652 82.596 93.094 82.661 93.51 82.661C93.8134 82.661 94.0387 82.6393 94.186 82.596C94.3334 82.5527 94.4244 82.466 94.459 82.336C94.4764 82.232 94.446 82.1497 94.368 82.089C94.29 82.0197 94.1384 81.9503 93.913 81.881C93.6964 81.803 93.4407 81.7207 93.146 81.634C92.522 81.4347 92.0714 81.2223 91.794 80.997C91.5254 80.7717 91.391 80.464 91.391 80.074C91.391 79.9093 91.4084 79.7447 91.443 79.58C91.729 78.2367 92.8687 77.565 94.862 77.565C95.3127 77.565 95.7764 77.6127 96.253 77.708C96.7297 77.8033 97.0764 77.929 97.293 78.085L96.942 79.736C96.7167 79.5627 96.4004 79.4197 95.993 79.307C95.5944 79.1943 95.2087 79.138 94.836 79.138C94.5414 79.138 94.3074 79.1683 94.134 79.229C93.9607 79.281 93.8567 79.3763 93.822 79.515C93.796 79.645 93.8567 79.7447 94.004 79.814C94.16 79.8833 94.4374 79.97 94.836 80.074C94.8794 80.0827 94.927 80.0957 94.979 80.113C95.0397 80.1303 95.1004 80.1477 95.161 80.165C95.8024 80.347 96.253 80.555 96.513 80.789C96.773 81.023 96.903 81.3263 96.903 81.699C96.903 81.829 96.8814 82.011 96.838 82.245C96.708 82.8517 96.3614 83.3283 95.798 83.675C95.2434 84.0217 94.446 84.195 93.406 84.195ZM99.8429 84.195C99.2102 84.195 98.7335 84.0477 98.4129 83.753C98.1009 83.4583 97.9449 83.0423 97.9449 82.505C97.9449 82.2883 97.9709 82.05 98.0229 81.79L98.5429 79.346H97.6589L97.9969 77.76H98.8809L99.2709 75.888H101.559L101.169 77.76H102.599L102.261 79.346H100.831L100.376 81.478C100.341 81.6167 100.324 81.7553 100.324 81.894C100.324 82.076 100.376 82.2103 100.48 82.297C100.584 82.3837 100.757 82.427 101 82.427C101.312 82.427 101.624 82.349 101.936 82.193L101.572 83.896C101.329 84 101.074 84.0737 100.805 84.117C100.536 84.169 100.216 84.195 99.8429 84.195ZM105.678 84.195C104.673 84.195 103.884 83.9653 103.312 83.506C102.749 83.038 102.467 82.4097 102.467 81.621C102.467 81.387 102.493 81.14 102.545 80.88C102.753 79.8747 103.251 79.073 104.04 78.475C104.829 77.8683 105.847 77.565 107.095 77.565C108.109 77.565 108.898 77.8033 109.461 78.28C110.033 78.748 110.319 79.3763 110.319 80.165C110.319 80.3903 110.293 80.6287 110.241 80.88C110.024 81.8853 109.517 82.6913 108.72 83.298C107.931 83.896 106.917 84.195 105.678 84.195ZM106.055 82.414C106.514 82.414 106.909 82.2797 107.238 82.011C107.576 81.7337 107.797 81.3567 107.901 80.88C107.936 80.7327 107.953 80.5723 107.953 80.399C107.953 79.697 107.541 79.346 106.718 79.346C106.259 79.346 105.86 79.4847 105.522 79.762C105.193 80.0307 104.98 80.4033 104.885 80.88C104.842 81.0793 104.82 81.2483 104.82 81.387C104.82 82.0717 105.232 82.414 106.055 82.414ZM113.2 76.928C112.905 76.928 112.667 76.8457 112.485 76.681C112.303 76.5077 112.212 76.2823 112.212 76.005C112.212 75.745 112.281 75.5023 112.42 75.277C112.559 75.0517 112.741 74.874 112.966 74.744C113.2 74.6053 113.447 74.536 113.707 74.536C114.002 74.536 114.24 74.627 114.422 74.809C114.613 74.9823 114.708 75.2077 114.708 75.485C114.708 75.5283 114.699 75.6107 114.682 75.732C114.604 76.07 114.422 76.356 114.136 76.59C113.85 76.8153 113.538 76.928 113.2 76.928ZM111.887 77.76H114.175L112.849 84H110.561L111.887 77.76ZM115.427 77.76H117.637L117.468 78.54C117.771 78.2627 118.157 78.0503 118.625 77.903C119.102 77.747 119.609 77.669 120.146 77.669L119.769 79.424C119.197 79.424 118.673 79.5063 118.196 79.671C117.719 79.8357 117.368 80.0827 117.143 80.412L116.389 84H114.101L115.427 77.76ZM123.072 84.195C122.067 84.195 121.265 83.974 120.667 83.532C120.069 83.0813 119.77 82.453 119.77 81.647C119.77 81.413 119.796 81.166 119.848 80.906C120.074 79.8573 120.546 79.0383 121.265 78.449C121.993 77.8597 122.964 77.565 124.177 77.565C124.775 77.565 125.295 77.6777 125.737 77.903C126.179 78.1283 126.517 78.436 126.751 78.826C126.985 79.216 127.102 79.6537 127.102 80.139C127.102 80.347 127.076 80.568 127.024 80.802L126.842 81.647H121.863C121.889 82.3057 122.509 82.635 123.722 82.635C124.13 82.635 124.554 82.6003 124.996 82.531C125.438 82.4617 125.828 82.3663 126.166 82.245L125.854 83.753C125.508 83.883 125.083 83.987 124.58 84.065C124.078 84.1517 123.575 84.195 123.072 84.195ZM124.983 80.217C124.992 80.165 124.996 80.0957 124.996 80.009C124.996 79.723 124.905 79.5063 124.723 79.359C124.541 79.2117 124.234 79.138 123.8 79.138C123.384 79.138 123.033 79.2377 122.747 79.437C122.461 79.6277 122.266 79.8877 122.162 80.217H124.983ZM134.674 84.195C133.86 84.195 133.205 83.9697 132.711 83.519C132.217 83.0683 131.97 82.4573 131.97 81.686C131.97 81.478 132.001 81.2137 132.061 80.893C132.2 80.2343 132.456 79.6537 132.828 79.151C133.21 78.6483 133.678 78.2583 134.232 77.981C134.796 77.7037 135.415 77.565 136.091 77.565C136.525 77.565 136.91 77.6257 137.248 77.747C137.586 77.8683 137.859 78.0417 138.067 78.267L138.899 74.393H141.187L139.146 84H136.936L137.066 83.376C136.364 83.922 135.567 84.195 134.674 84.195ZM135.649 82.427C135.996 82.427 136.325 82.3403 136.637 82.167C136.958 81.985 137.209 81.7423 137.391 81.439L137.625 80.334C137.573 80.0307 137.426 79.7923 137.183 79.619C136.949 79.437 136.659 79.346 136.312 79.346C135.844 79.346 135.437 79.4847 135.09 79.762C134.744 80.0393 134.518 80.4163 134.414 80.893C134.38 81.0403 134.362 81.1963 134.362 81.361C134.362 82.0717 134.791 82.427 135.649 82.427ZM142.774 84.195C142.098 84.195 141.578 84.0217 141.214 83.675C140.859 83.3197 140.681 82.8473 140.681 82.258C140.681 82.05 140.707 81.829 140.759 81.595L141.578 77.76H143.866L143.099 81.335C143.073 81.465 143.06 81.5907 143.06 81.712C143.06 82.18 143.32 82.414 143.84 82.414C144.135 82.414 144.416 82.3447 144.685 82.206C144.962 82.0673 145.209 81.8637 145.426 81.595L146.245 77.76H148.533L147.207 84H144.997L145.14 83.324C144.802 83.61 144.425 83.8267 144.009 83.974C143.602 84.1213 143.19 84.195 142.774 84.195ZM154.135 79.346H153.264L153.602 77.76H154.473L154.629 76.98C154.82 76.1133 155.21 75.4547 155.799 75.004C156.389 74.5533 157.147 74.328 158.074 74.328C158.542 74.328 158.941 74.406 159.27 74.562L158.88 76.382C158.664 76.2607 158.404 76.2 158.1 76.2C157.719 76.2 157.437 76.2737 157.255 76.421C157.073 76.5683 156.948 76.8197 156.878 77.175L156.761 77.76H158.204L157.866 79.346H156.423L155.435 84H153.147L154.135 79.346ZM162.508 74.952H164.913L163.236 77.266H161.117L162.508 74.952ZM161.273 84.195C160.267 84.195 159.466 83.974 158.868 83.532C158.27 83.0813 157.971 82.453 157.971 81.647C157.971 81.413 157.997 81.166 158.049 80.906C158.274 79.8573 158.746 79.0383 159.466 78.449C160.194 77.8597 161.164 77.565 162.378 77.565C162.976 77.565 163.496 77.6777 163.938 77.903C164.38 78.1283 164.718 78.436 164.952 78.826C165.186 79.216 165.303 79.6537 165.303 80.139C165.303 80.347 165.277 80.568 165.225 80.802L165.043 81.647H160.064C160.09 82.3057 160.709 82.635 161.923 82.635C162.33 82.635 162.755 82.6003 163.197 82.531C163.639 82.4617 164.029 82.3663 164.367 82.245L164.055 83.753C163.708 83.883 163.283 83.987 162.781 84.065C162.278 84.1517 161.775 84.195 161.273 84.195ZM163.184 80.217C163.192 80.165 163.197 80.0957 163.197 80.009C163.197 79.723 163.106 79.5063 162.924 79.359C162.742 79.2117 162.434 79.138 162.001 79.138C161.585 79.138 161.234 79.2377 160.948 79.437C160.662 79.6277 160.467 79.8877 160.363 80.217H163.184ZM166.78 77.76H168.899L168.743 78.436C169.063 78.1587 169.41 77.9463 169.783 77.799C170.155 77.643 170.532 77.565 170.914 77.565C171.382 77.565 171.741 77.6343 171.993 77.773C172.244 77.9117 172.426 78.1197 172.539 78.397C172.859 78.137 173.219 77.9333 173.618 77.786C174.025 77.6387 174.419 77.565 174.801 77.565C175.459 77.565 175.932 77.6993 176.218 77.968C176.512 78.2367 176.66 78.6267 176.66 79.138C176.66 79.3893 176.625 79.6797 176.556 80.009L175.711 84H173.527L174.294 80.334C174.328 80.1953 174.346 80.0567 174.346 79.918C174.346 79.7187 174.289 79.5757 174.177 79.489C174.073 79.3937 173.904 79.346 173.67 79.346C173.28 79.346 172.933 79.4847 172.63 79.762C172.578 80.0567 172.534 80.282 172.5 80.438L171.746 84H169.562L170.355 80.243C170.389 80.0523 170.407 79.9267 170.407 79.866C170.407 79.684 170.355 79.554 170.251 79.476C170.155 79.3893 169.999 79.346 169.783 79.346C169.332 79.346 168.894 79.593 168.47 80.087L167.651 84H165.454L166.78 77.76ZM179.533 76.928C179.238 76.928 179 76.8457 178.818 76.681C178.636 76.5077 178.545 76.2823 178.545 76.005C178.545 75.745 178.614 75.5023 178.753 75.277C178.892 75.0517 179.074 74.874 179.299 74.744C179.533 74.6053 179.78 74.536 180.04 74.536C180.335 74.536 180.573 74.627 180.755 74.809C180.946 74.9823 181.041 75.2077 181.041 75.485C181.041 75.5283 181.032 75.6107 181.015 75.732C180.937 76.07 180.755 76.356 180.469 76.59C180.183 76.8153 179.871 76.928 179.533 76.928ZM178.22 77.76H180.508L179.182 84H176.894L178.22 77.76ZM181.76 77.76H183.97L183.814 78.449C184.152 78.1543 184.525 77.9333 184.932 77.786C185.348 77.6387 185.764 77.565 186.18 77.565C186.847 77.565 187.363 77.7513 187.727 78.124C188.091 78.488 188.273 78.9517 188.273 79.515C188.273 79.6883 188.251 79.8833 188.208 80.1L187.389 84H185.101L185.855 80.399C185.89 80.2603 185.907 80.1217 185.907 79.983C185.907 79.775 185.846 79.619 185.725 79.515C185.604 79.4023 185.404 79.346 185.127 79.346C184.832 79.346 184.546 79.4153 184.269 79.554C184 79.6927 183.753 79.8963 183.528 80.165L182.722 84H180.434L181.76 77.76ZM191.213 76.928C190.918 76.928 190.68 76.8457 190.498 76.681C190.316 76.5077 190.225 76.2823 190.225 76.005C190.225 75.745 190.294 75.5023 190.433 75.277C190.571 75.0517 190.753 74.874 190.979 74.744C191.213 74.6053 191.46 74.536 191.72 74.536C192.014 74.536 192.253 74.627 192.435 74.809C192.625 74.9823 192.721 75.2077 192.721 75.485C192.721 75.5283 192.712 75.6107 192.695 75.732C192.617 76.07 192.435 76.356 192.149 76.59C191.863 76.8153 191.551 76.928 191.213 76.928ZM189.9 77.76H192.188L190.862 84H188.574L189.9 77.76ZM194.753 84.195C194.25 84.195 193.734 84.143 193.206 84.039C192.686 83.9437 192.287 83.805 192.01 83.623L192.361 81.946C192.673 82.154 193.063 82.3273 193.531 82.466C193.999 82.596 194.441 82.661 194.857 82.661C195.16 82.661 195.385 82.6393 195.533 82.596C195.68 82.5527 195.771 82.466 195.806 82.336C195.823 82.232 195.793 82.1497 195.715 82.089C195.637 82.0197 195.485 81.9503 195.26 81.881C195.043 81.803 194.787 81.7207 194.493 81.634C193.869 81.4347 193.418 81.2223 193.141 80.997C192.872 80.7717 192.738 80.464 192.738 80.074C192.738 79.9093 192.755 79.7447 192.79 79.58C193.076 78.2367 194.215 77.565 196.209 77.565C196.659 77.565 197.123 77.6127 197.6 77.708C198.076 77.8033 198.423 77.929 198.64 78.085L198.289 79.736C198.063 79.5627 197.747 79.4197 197.34 79.307C196.941 79.1943 196.555 79.138 196.183 79.138C195.888 79.138 195.654 79.1683 195.481 79.229C195.307 79.281 195.203 79.3763 195.169 79.515C195.143 79.645 195.203 79.7447 195.351 79.814C195.507 79.8833 195.784 79.97 196.183 80.074C196.226 80.0827 196.274 80.0957 196.326 80.113C196.386 80.1303 196.447 80.1477 196.508 80.165C197.149 80.347 197.6 80.555 197.86 80.789C198.12 81.023 198.25 81.3263 198.25 81.699C198.25 81.829 198.228 82.011 198.185 82.245C198.055 82.8517 197.708 83.3283 197.145 83.675C196.59 84.0217 195.793 84.195 194.753 84.195ZM200.054 77.76H202.173L202.017 78.436C202.338 78.1587 202.684 77.9463 203.057 77.799C203.43 77.643 203.807 77.565 204.188 77.565C204.656 77.565 205.016 77.6343 205.267 77.773C205.518 77.9117 205.7 78.1197 205.813 78.397C206.134 78.137 206.493 77.9333 206.892 77.786C207.299 77.6387 207.694 77.565 208.075 77.565C208.734 77.565 209.206 77.6993 209.492 77.968C209.787 78.2367 209.934 78.6267 209.934 79.138C209.934 79.3893 209.899 79.6797 209.83 80.009L208.985 84H206.801L207.568 80.334C207.603 80.1953 207.62 80.0567 207.62 79.918C207.62 79.7187 207.564 79.5757 207.451 79.489C207.347 79.3937 207.178 79.346 206.944 79.346C206.554 79.346 206.207 79.4847 205.904 79.762C205.852 80.0567 205.809 80.282 205.774 80.438L205.02 84H202.836L203.629 80.243C203.664 80.0523 203.681 79.9267 203.681 79.866C203.681 79.684 203.629 79.554 203.525 79.476C203.43 79.3893 203.274 79.346 203.057 79.346C202.606 79.346 202.169 79.593 201.744 80.087L200.925 84H198.728L200.054 77.76ZM213.704 84.195C212.699 84.195 211.897 83.974 211.299 83.532C210.701 83.0813 210.402 82.453 210.402 81.647C210.402 81.413 210.428 81.166 210.48 80.906C210.706 79.8573 211.178 79.0383 211.897 78.449C212.625 77.8597 213.596 77.565 214.809 77.565C215.407 77.565 215.927 77.6777 216.369 77.903C216.811 78.1283 217.149 78.436 217.383 78.826C217.617 79.216 217.734 79.6537 217.734 80.139C217.734 80.347 217.708 80.568 217.656 80.802L217.474 81.647H212.495C212.521 82.3057 213.141 82.635 214.354 82.635C214.762 82.635 215.186 82.6003 215.628 82.531C216.07 82.4617 216.46 82.3663 216.798 82.245L216.486 83.753C216.14 83.883 215.715 83.987 215.212 84.065C214.71 84.1517 214.207 84.195 213.704 84.195ZM215.615 80.217C215.624 80.165 215.628 80.0957 215.628 80.009C215.628 79.723 215.537 79.5063 215.355 79.359C215.173 79.2117 214.866 79.138 214.432 79.138C214.016 79.138 213.665 79.2377 213.379 79.437C213.093 79.6277 212.898 79.8877 212.794 80.217H215.615ZM225.917 84.195C224.912 84.195 224.11 83.974 223.512 83.532C222.914 83.0813 222.615 82.453 222.615 81.647C222.615 81.413 222.641 81.166 222.693 80.906C222.918 79.8573 223.391 79.0383 224.11 78.449C224.838 77.8597 225.809 77.565 227.022 77.565C227.62 77.565 228.14 77.6777 228.582 77.903C229.024 78.1283 229.362 78.436 229.596 78.826C229.83 79.216 229.947 79.6537 229.947 80.139C229.947 80.347 229.921 80.568 229.869 80.802L229.687 81.647H224.708C224.734 82.3057 225.354 82.635 226.567 82.635C226.974 82.635 227.399 82.6003 227.841 82.531C228.283 82.4617 228.673 82.3663 229.011 82.245L228.699 83.753C228.352 83.883 227.928 83.987 227.425 84.065C226.922 84.1517 226.42 84.195 225.917 84.195ZM227.828 80.217C227.837 80.165 227.841 80.0957 227.841 80.009C227.841 79.723 227.75 79.5063 227.568 79.359C227.386 79.2117 227.078 79.138 226.645 79.138C226.229 79.138 225.878 79.2377 225.592 79.437C225.306 79.6277 225.111 79.8877 225.007 80.217H227.828ZM231.424 77.76H233.634L233.478 78.449C233.816 78.1543 234.189 77.9333 234.596 77.786C235.012 77.6387 235.428 77.565 235.844 77.565C236.511 77.565 237.027 77.7513 237.391 78.124C237.755 78.488 237.937 78.9517 237.937 79.515C237.937 79.6883 237.915 79.8833 237.872 80.1L237.053 84H234.765L235.519 80.399C235.554 80.2603 235.571 80.1217 235.571 79.983C235.571 79.775 235.51 79.619 235.389 79.515C235.268 79.4023 235.068 79.346 234.791 79.346C234.496 79.346 234.21 79.4153 233.933 79.554C233.664 79.6927 233.417 79.8963 233.192 80.165L232.386 84H230.098L231.424 77.76ZM245.36 84.195C244.788 84.195 244.229 84.1387 243.683 84.026C243.145 83.922 242.716 83.7747 242.396 83.584L242.838 81.517C243.254 81.7597 243.7 81.9417 244.177 82.063C244.662 82.1843 245.134 82.245 245.594 82.245C246.062 82.245 246.421 82.167 246.673 82.011C246.933 81.8463 247.063 81.621 247.063 81.335C247.063 81.1183 246.959 80.9363 246.751 80.789C246.543 80.6417 246.153 80.438 245.581 80.178C244.931 79.8833 244.454 79.5627 244.151 79.216C243.847 78.8607 243.696 78.449 243.696 77.981C243.696 77.825 243.717 77.63 243.761 77.396C243.934 76.59 244.376 75.9443 245.087 75.459C245.797 74.965 246.694 74.718 247.778 74.718C248.332 74.718 248.818 74.7613 249.234 74.848C249.65 74.9347 250.035 75.0733 250.391 75.264L249.962 77.279C249.294 76.8803 248.571 76.681 247.791 76.681C247.375 76.681 247.028 76.7503 246.751 76.889C246.482 77.019 246.317 77.2097 246.257 77.461C246.248 77.4957 246.244 77.5433 246.244 77.604C246.244 77.8033 246.352 77.9767 246.569 78.124C246.794 78.2713 247.193 78.4663 247.765 78.709C248.441 79.0123 248.926 79.3287 249.221 79.658C249.515 79.9787 249.663 80.373 249.663 80.841C249.663 81.0403 249.637 81.2657 249.585 81.517C249.411 82.375 248.987 83.038 248.311 83.506C247.635 83.9653 246.651 84.195 245.36 84.195ZM252.246 84.195C251.57 84.195 251.05 84.0217 250.686 83.675C250.33 83.3197 250.153 82.8473 250.153 82.258C250.153 82.05 250.179 81.829 250.231 81.595L251.05 77.76H253.338L252.571 81.335C252.545 81.465 252.532 81.5907 252.532 81.712C252.532 82.18 252.792 82.414 253.312 82.414C253.606 82.414 253.888 82.3447 254.157 82.206C254.434 82.0673 254.681 81.8637 254.898 81.595L255.717 77.76H258.005L256.679 84H254.469L254.612 83.324C254.274 83.61 253.897 83.8267 253.481 83.974C253.073 84.1213 252.662 84.195 252.246 84.195ZM260.957 74.952H263.362L263.765 77.266H261.646L260.957 74.952ZM261.464 84.195C260.459 84.195 259.657 83.974 259.059 83.532C258.461 83.0813 258.162 82.453 258.162 81.647C258.162 81.413 258.188 81.166 258.24 80.906C258.465 79.8573 258.938 79.0383 259.657 78.449C260.385 77.8597 261.356 77.565 262.569 77.565C263.167 77.565 263.687 77.6777 264.129 77.903C264.571 78.1283 264.909 78.436 265.143 78.826C265.377 79.216 265.494 79.6537 265.494 80.139C265.494 80.347 265.468 80.568 265.416 80.802L265.234 81.647H260.255C260.281 82.3057 260.901 82.635 262.114 82.635C262.521 82.635 262.946 82.6003 263.388 82.531C263.83 82.4617 264.22 82.3663 264.558 82.245L264.246 83.753C263.899 83.883 263.475 83.987 262.972 84.065C262.469 84.1517 261.967 84.195 261.464 84.195ZM263.375 80.217C263.384 80.165 263.388 80.0957 263.388 80.009C263.388 79.723 263.297 79.5063 263.115 79.359C262.933 79.2117 262.625 79.138 262.192 79.138C261.776 79.138 261.425 79.2377 261.139 79.437C260.853 79.6277 260.658 79.8877 260.554 80.217H263.375ZM268.648 84.195C267.833 84.195 267.179 83.9697 266.685 83.519C266.191 83.0683 265.944 82.4573 265.944 81.686C265.944 81.478 265.974 81.2137 266.035 80.893C266.174 80.2343 266.429 79.6537 266.802 79.151C267.183 78.6483 267.651 78.2583 268.206 77.981C268.769 77.7037 269.389 77.565 270.065 77.565C270.498 77.565 270.884 77.6257 271.222 77.747C271.56 77.8683 271.833 78.0417 272.041 78.267L272.873 74.393H275.161L273.12 84H270.91L271.04 83.376C270.338 83.922 269.541 84.195 268.648 84.195ZM269.623 82.427C269.97 82.427 270.299 82.3403 270.611 82.167C270.932 81.985 271.183 81.7423 271.365 81.439L271.599 80.334C271.547 80.0307 271.4 79.7923 271.157 79.619C270.923 79.437 270.633 79.346 270.286 79.346C269.818 79.346 269.411 79.4847 269.064 79.762C268.717 80.0393 268.492 80.4163 268.388 80.893C268.353 81.0403 268.336 81.1963 268.336 81.361C268.336 82.0717 268.765 82.427 269.623 82.427ZM277.904 84.195C276.899 84.195 276.097 83.974 275.499 83.532C274.901 83.0813 274.602 82.453 274.602 81.647C274.602 81.413 274.628 81.166 274.68 80.906C274.906 79.8573 275.378 79.0383 276.097 78.449C276.825 77.8597 277.796 77.565 279.009 77.565C279.607 77.565 280.127 77.6777 280.569 77.903C281.011 78.1283 281.349 78.436 281.583 78.826C281.817 79.216 281.934 79.6537 281.934 80.139C281.934 80.347 281.908 80.568 281.856 80.802L281.674 81.647H276.695C276.721 82.3057 277.341 82.635 278.554 82.635C278.962 82.635 279.386 82.6003 279.828 82.531C280.27 82.4617 280.66 82.3663 280.998 82.245L280.686 83.753C280.34 83.883 279.915 83.987 279.412 84.065C278.91 84.1517 278.407 84.195 277.904 84.195ZM279.815 80.217C279.824 80.165 279.828 80.0957 279.828 80.009C279.828 79.723 279.737 79.5063 279.555 79.359C279.373 79.2117 279.066 79.138 278.632 79.138C278.216 79.138 277.865 79.2377 277.579 79.437C277.293 79.6277 277.098 79.8877 276.994 80.217H279.815Z" fill="white"/>
</svg>
